<svg xmlns="http://www.w3.org/2000/svg" xmlns:xlink="http://www.w3.org/1999/xlink" viewBox="0 0 600 150"><defs><style>.cls-1,.cls-2{fill-rule:evenodd;}.cls-1{fill:url(#New_Gradient_Swatch_copy);}.cls-2{fill:url(#New_Gradient_Swatch_copy-2);}.cls-3{fill:url(#New_Gradient_Swatch);}.cls-4{fill:url(#New_Gradient_Swatch-2);}.cls-5{fill:url(#New_Gradient_Swatch-3);}</style><linearGradient id="New_Gradient_Swatch_copy" x1="132.13" y1="34.92" x2="132.13" y2="115.36" gradientUnits="userSpaceOnUse"><stop offset="0" stop-color="#fdfdfd"/><stop offset="1" stop-color="#dfdfdf"/></linearGradient><linearGradient id="New_Gradient_Swatch_copy-2" x1="311.64" y1="37.23" x2="311.64" y2="115.36" xlink:href="#New_Gradient_Swatch_copy"/><linearGradient id="New_Gradient_Swatch" x1="494.49" y1="34.64" x2="494.49" y2="115.1" gradientUnits="userSpaceOnUse"><stop offset="0" stop-color="#bac6ee"/><stop offset="1" stop-color="#899adc"/></linearGradient><linearGradient id="New_Gradient_Swatch-2" x1="446.05" y1="63.98" x2="446.05" y2="86.1" xlink:href="#New_Gradient_Swatch"/><linearGradient id="New_Gradient_Swatch-3" x1="401.63" y1="37.23" x2="401.63" y2="115.36" xlink:href="#New_Gradient_Swatch"/></defs><title>logo</title><g id="Layer_3" data-name="Layer 3"><path class="cls-1" d="M208.8,84.66h32.82l3.37-9V67.14H208.8V55h37V37.49h-57.1V50.91c-4.07-8-12.4-13.42-24.24-13.42H69.53v.26A53.19,53.19,0,0,0,52,34.92C32,34.92,21,46.59,21,59.67c0,30,44,21.48,44,31.76,0,3.85-4.2,6.19-11,6.19a35.3,35.3,0,0,1-25-10.28L18.45,103c7.82,7.35,18.8,12.37,34.56,12.37,20.9,0,32.46-10.39,32.46-26,0-29-44-21.72-44-31.29,0-3.39,2.57-5.38,8.41-5.38a36.1,36.1,0,0,1,22.76,8.18L76.88,55H91.36v60.36h20.08V55h14v60.36h20.08V89.21h10.28l13.08,26.15h61.15l6.59-17.51H208.8Zm-47.37-13H145.55V55h15.88c5.37,0,9.69,2.92,9.69,8.29S166.8,71.7,161.43,71.7ZM176,86.76a22.78,22.78,0,0,0,12.68-11v33.81Z"/><path class="cls-2" d="M385.91,115.36,334.48,37.23H312.77l.19.3h-.19V92.66L292,37.49H266.67l-29.31,77.87h22.77L264,104.15h30.71l3.85,11.21h33.68V66.71l32.12,48.65ZM269.47,86.64l9.92-29.3,9.81,29.3Z"/><path class="cls-3" d="M558.9,37.23l-11.67,52-13.31-52H518.5l-13.31,52-11.79-52H470.87L473.08,45c-7.33-6.52-17.28-10.32-28.64-10.32-16.55,0-30.21,8-37,20.87l16.33,24.81a26.43,26.43,0,0,1-.57-5.4c0-12.73,8.41-22.54,21.25-22.54s21.14,9.81,21.14,22.54-8.29,22.53-21.14,22.53a21,21,0,0,1-11.58-3.3l13.79,20.95c19-.84,33.75-12.38,38-29.59l8.48,29.59h21.25l11.79-48.8L538,115.1h21.25l22.3-77.87Z"/><path class="cls-4" d="M439.83,85.8l14.5-9a2,2,0,0,0,0-3.45l-14.5-9a2,2,0,0,0-3,1.69V84.1A2,2,0,0,0,439.83,85.8Z"/><polygon class="cls-5" points="385.74 37.23 366.28 37.23 363.85 37.23 363.85 70.75 385.74 104.01 385.74 66.71 417.85 115.36 439.42 115.36 388 37.23 385.74 37.23"/></g></svg>